<?xml version="1.0" standalone="no"?>
<!DOCTYPE svg PUBLIC "-//W3C//DTD SVG 20010904//EN"
 "http://www.w3.org/TR/2001/REC-SVG-20010904/DTD/svg10.dtd">
<svg version="1.0" xmlns="http://www.w3.org/2000/svg"
 width="1280.000000pt" height="675.000000pt" viewBox="0 0 1280.000000 675.000000"
 preserveAspectRatio="xMidYMid meet">
<metadata>
Created by potrace 1.15, written by Peter Selinger 2001-2017
</metadata>
<g transform="translate(0.000000,675.000000) scale(0.100000,-0.100000)"
fill="#000000" stroke="none">
<path d="M6823 6569 c-129 -22 -226 -83 -258 -161 -28 -70 -22 -179 20 -342
19 -77 35 -150 35 -163 0 -14 11 -39 25 -57 33 -43 87 -164 80 -177 -4 -5 -70
-41 -148 -80 -78 -39 -150 -79 -161 -88 -10 -9 -28 -36 -41 -61 -35 -68 -49
-77 -146 -84 -138 -10 -275 -62 -254 -96 4 -6 31 -10 61 -10 49 0 54 -2 54
-22 0 -13 -13 -45 -28 -73 -35 -64 -87 -94 -132 -75 -55 23 -89 101 -156 353
-24 94 -52 182 -60 196 -16 23 -18 23 -148 19 -140 -5 -202 -22 -254 -71 -77
-72 -89 -234 -26 -375 67 -151 269 -385 417 -482 37 -24 67 -50 67 -57 0 -10
-57 -13 -275 -13 l-274 0 -10 38 c-6 20 -28 111 -51 202 -55 220 -136 461
-174 519 -26 38 -48 55 -131 97 -54 29 -101 56 -103 62 -1 5 13 21 33 36 43
33 65 74 65 120 0 25 -6 40 -20 48 -28 18 -26 24 24 47 81 40 95 76 66 174
-13 42 -12 67 3 204 17 148 17 157 0 192 -34 70 -144 103 -348 105 -145 1
-199 -12 -260 -66 -68 -60 -87 -120 -93 -300 -4 -133 -2 -153 19 -220 14 -46
23 -99 23 -145 1 -63 -2 -75 -24 -98 -39 -42 -74 -55 -223 -86 -77 -16 -157
-38 -180 -51 -50 -28 -84 -90 -148 -273 -89 -257 -150 -373 -244 -470 -67 -69
-142 -105 -219 -105 l-44 0 -17 73 c-45 187 -116 368 -150 381 -9 3 -64 6
-121 6 -99 0 -104 1 -104 21 0 19 4 20 50 14 67 -9 93 9 131 89 60 129 115
475 107 681 -3 93 -6 108 -40 176 -107 217 -367 329 -573 247 -56 -22 -125
-80 -169 -142 -71 -99 -107 -202 -131 -376 -19 -135 -19 -212 0 -280 49 -175
45 -239 -17 -306 -46 -50 -113 -79 -232 -100 l-79 -14 -73 70 c-120 114 -147
130 -263 160 l-44 12 7 86 c3 48 16 130 27 182 41 193 48 248 49 361 l0 116
-60 57 c-83 79 -149 108 -265 114 -229 12 -360 -80 -420 -294 -11 -40 -18
-117 -22 -244 l-6 -185 42 -83 c29 -57 38 -84 29 -86 -7 -2 -42 -9 -78 -15
-98 -16 -177 -60 -252 -139 -78 -83 -120 -156 -194 -338 -31 -77 -72 -169 -90
-206 l-34 -68 0 -1430 0 -1430 159 0 c96 0 162 4 166 10 8 13 65 13 65 0 0 -7
1919 -10 5738 -10 l5739 0 23 25 24 26 13 -26 14 -25 227 2 227 3 7 650 c4
358 11 992 16 1409 l9 760 -43 90 c-23 50 -58 150 -78 222 -66 246 -107 335
-192 421 -54 54 -123 87 -226 110 -43 9 -78 21 -78 27 0 27 22 82 46 117 14
21 30 55 35 76 11 49 -6 287 -27 367 -59 228 -231 348 -456 316 -140 -20 -250
-88 -300 -185 -28 -53 -20 -163 16 -252 22 -54 26 -78 26 -170 0 -82 6 -131
25 -203 14 -52 25 -98 25 -102 0 -4 -26 -14 -57 -23 -95 -28 -162 -66 -213
-122 -61 -67 -83 -131 -110 -326 -23 -162 -32 -197 -54 -197 -8 0 -27 26 -43
57 -36 74 -142 180 -264 266 -131 92 -134 95 -115 142 9 21 16 44 16 51 0 8
-25 28 -55 45 -30 17 -55 34 -55 37 0 3 18 25 41 48 l41 41 1 144 c1 184 -14
245 -128 524 -123 300 -106 289 -444 282 -256 -5 -335 -16 -427 -56 -115 -51
-175 -138 -178 -258 -1 -87 16 -126 70 -164 l44 -30 0 -132 c0 -118 2 -133 19
-144 31 -19 98 -128 130 -213 33 -85 42 -179 19 -197 -25 -19 -388 -152 -401
-147 -7 2 -21 17 -30 33 -45 77 -151 172 -266 241 -65 39 -137 74 -165 80 -55
12 -97 32 -115 54 -10 12 -9 31 4 97 26 127 5 247 -69 404 -106 222 -252 343
-426 353 -62 4 -88 0 -155 -23 -99 -33 -176 -79 -236 -142 -111 -115 -115
-214 -13 -412 36 -70 47 -104 51 -153 l5 -63 -20 28 c-39 57 -125 97 -367 172
-140 43 -190 67 -206 97 -14 27 -7 106 21 213 52 197 14 393 -90 463 -67 45
-222 70 -327 51z m1190 -1273 c116 -69 152 -104 143 -142 -12 -47 -42 -79
-133 -142 -123 -84 -157 -125 -203 -242 -48 -124 -58 -135 -127 -151 l-33 -7
0 53 c0 63 39 217 110 440 40 124 80 279 80 310 0 1 16 -13 36 -32 20 -18 77
-58 127 -87z m-1639 -602 c9 -3 16 -15 16 -25 0 -18 -9 -19 -132 -19 -143 1
-152 9 -35 35 68 15 127 18 151 9z"/>
<path d="M8945 1624 c-239 -37 -444 -215 -501 -435 -22 -83 -22 -242 0 -333
46 -194 201 -349 411 -412 84 -26 286 -26 369 0 211 63 356 213 407 416 19 76
17 260 -4 337 -52 196 -210 355 -407 408 -57 16 -222 27 -275 19z m282 -224
c112 -55 183 -160 204 -301 22 -151 -22 -299 -115 -388 -91 -85 -191 -119
-321 -107 -215 20 -355 183 -355 414 0 149 42 258 128 333 112 99 314 120 459
49z"/>
<path d="M10348 1603 l-88 -4 0 -574 0 -575 110 0 110 0 0 236 0 235 23 -3
c17 -2 53 -55 162 -235 l140 -232 113 -1 c61 0 112 2 112 5 0 3 -65 112 -144
242 l-144 238 58 27 c73 33 151 104 181 166 32 66 34 215 3 283 -45 97 -139
159 -282 185 -73 13 -154 14 -354 7z m346 -204 c22 -6 55 -26 74 -45 33 -33
34 -37 30 -94 -3 -49 -10 -65 -33 -90 -41 -43 -102 -63 -198 -64 l-82 -1 -3
149 c-2 113 1 152 10 158 15 11 145 2 202 -13z"/>
<path d="M390 1511 c0 -107 -10 -101 173 -101 l127 0 0 -480 0 -480 110 0 110
0 0 480 0 480 150 0 150 0 0 95 0 95 -410 0 -410 0 0 -89z"/>
<path d="M1770 1025 l0 -575 335 0 335 0 0 90 0 90 -207 0 c-115 0 -218 3
-230 6 -23 6 -23 9 -23 155 l0 149 198 2 197 3 3 88 3 87 -185 0 c-101 0 -191
3 -200 6 -24 9 -24 279 0 288 9 3 112 6 230 6 l215 0 -3 88 -3 87 -332 3 -333
2 0 -575z"/>
<path d="M3402 1583 c-7 -13 -266 -644 -459 -1120 -4 -10 21 -13 103 -13 l109
0 50 133 50 132 262 3 262 2 14 -27 c7 -16 31 -76 52 -135 l39 -108 108 0 108
0 -17 43 c-9 23 -114 281 -233 572 l-216 530 -111 3 c-99 2 -113 1 -121 -15z
m123 -244 c16 -31 185 -429 185 -435 0 -9 -359 -3 -365 6 -5 8 154 460 162
460 1 0 10 -14 18 -31z"/>
<path d="M4708 1593 c-10 -2 -18 -8 -18 -12 0 -4 -20 -253 -45 -554 -25 -301
-45 -554 -45 -562 0 -12 18 -15 90 -15 85 0 90 1 95 23 4 20 14 153 45 597 6
80 13 161 16 180 l6 34 21 -49 c12 -27 90 -214 172 -415 l150 -365 99 0 99 0
166 422 c91 232 169 419 173 415 5 -5 68 -774 68 -833 0 -5 43 -9 96 -9 l96 0
-6 48 c-6 42 -50 561 -76 887 -6 72 -13 149 -16 173 l-5 43 -105 -3 -105 -3
-191 -439 c-134 -306 -195 -435 -201 -425 -5 8 -90 205 -190 439 l-182 425
-95 2 c-52 0 -103 -1 -112 -4z"/>
<path d="M6491 1583 c0 -10 53 -268 117 -573 l117 -555 100 0 99 0 57 175 c32
96 92 283 135 414 70 216 78 237 89 215 7 -13 72 -201 145 -416 l133 -393 99
0 c70 0 100 4 103 12 6 17 235 1116 235 1128 0 6 -43 10 -99 10 -86 0 -100 -2
-105 -17 -3 -10 -37 -196 -75 -414 -39 -217 -74 -405 -78 -417 -7 -17 -41 77
-151 413 l-143 435 -67 0 -68 0 -124 -357 c-118 -340 -178 -505 -179 -492 -2
15 -132 798 -137 822 l-6 27 -99 0 c-88 0 -99 -2 -98 -17z"/>
<path d="M11580 1025 l0 -575 110 0 110 0 2 287 3 287 233 -287 234 -287 125
0 c68 0 123 4 121 8 -1 5 -115 146 -253 316 -137 169 -250 311 -250 316 0 5
108 120 240 257 l239 248 -124 3 -124 3 -223 -223 -223 -223 0 223 0 222 -110
0 -110 0 0 -575z"/>
</g>
</svg>
